<?xml version="1.0" encoding="utf-8"?>
<!-- Generator: Adobe Illustrator 25.1.0, SVG Export Plug-In . SVG Version: 6.00 Build 0)  -->
<svg version="1.1" xmlns="http://www.w3.org/2000/svg" xmlns:xlink="http://www.w3.org/1999/xlink" x="0px" y="0px"
	 viewBox="0 0 1007.5 702.3" style="enable-background:new 0 0 1007.5 702.3;" xml:space="preserve">
<style type="text/css">
	.st0{fill:#FFFFFF;}
	.st1{fill:none;stroke:#FFFFFF;stroke-miterlimit:10;}
	.st2{fill:#2F2E41;}
	.st3{fill:none;stroke:#2F2E41;stroke-miterlimit:10;}
	.st4{fill:#FF63F8;}
	.st5{fill:#F2F2F2;}
	.st6{fill:#3F3D56;}
	.st7{fill:#CCCCCC;}
</style>
<g id="e5c6fe42-ae74-4efe-bfa8-5003ba06ab4b">
	<g id="XMLID_6_">
		<g>
			<path class="st0" d="M278.9,478.1c6.9,6.9,11.1,16.4,11.1,26.9c0,21-17,38-38,38s-38-17-38-38c0-21,17-38,38-38
				C262.5,467,272,471.3,278.9,478.1z"/>
			<path class="st0" d="M217.4,526c6.7,11.1,10.5,24.1,10.6,38c0,40.9-33.1,74-74,74s-74-33.1-74-74c0-12.3,3-24,8.4-34.2
				c2-2.6,3.8-5.4,5.1-8.4c13.4-19,35.5-31.4,60.5-31.4C180.9,490,204.5,504.4,217.4,526z"/>
			<path class="st0" d="M213.9,517.2c3.8,4.8,6.9,10.1,9.5,15.7c-2.1-2.2-4-4.6-5.6-7.2C216.2,523.1,214.9,520.2,213.9,517.2z"/>
			<path class="st0" d="M292,505c0,22.1-17.9,40-40,40c-11.2,0-21.4-4.6-28.6-12.1c-2.5-5.6-5.7-10.9-9.5-15.7
				c-1.2-3.9-1.9-8-1.9-12.2c0-22.1,17.9-40,40-40S292,482.9,292,505z M290,505c0-10.5-4.3-20-11.1-26.9
				C272,471.3,262.5,467,252,467c-21,0-38,17-38,38c0,21,17,38,38,38S290,526,290,505z"/>
			<path class="st0" d="M230,564c-0.1,38.1-28,69.6-64.6,75.1c-3.4-0.7-7.3-1.1-11.4-1.1c40.9,0,74-33.1,74-74
				c0-13.9-3.9-26.9-10.6-38l0.3-0.2c1.6,2.6,3.5,5,5.6,7.2C227.6,542.4,230,552.9,230,564z"/>
			<ellipse class="st0" cx="154" cy="434.3" rx="45" ry="36.6"/>
			<path class="st0" d="M154,640c-3.9,0-7.7-0.3-11.4-0.9c3.4-0.7,7.3-1.1,11.5-1.1c4.1,0,8,0.4,11.4,1.1
				C161.7,639.7,157.9,640,154,640C154,640,154,640,154,640z"/>
			<path class="st0" d="M154,640c14.1,0,23.5,4.7,23.5,9c0,4.4-9.4,9-23.5,9s-23.5-4.6-23.5-9C130.5,644.7,139.9,640,154,640
				C154,640,154,640,154,640z"/>
			<path class="st0" d="M179.5,649c0,6.2-11.2,11-25.5,11s-25.5-4.8-25.5-11c0-4.4,5.6-8.1,14-9.9c3.7,0.6,7.6,0.9,11.4,0.9
				c-14.1,0-23.5,4.7-23.5,9c0,4.4,9.4,9,23.5,9s23.5-4.6,23.5-9c0-4.3-9.4-9-23.5-9c3.9,0,7.7-0.3,11.4-0.9
				C173.8,640.9,179.5,644.6,179.5,649z"/>
			<path class="st0" d="M201,434.3c0,21.1-21.1,38.2-47,38.2s-47-17.2-47-38.2s21.1-38.2,47-38.2S201,413.2,201,434.3z M199,434.3
				c0-20.2-20.2-36.6-45-36.6s-45,16.4-45,36.6s20.2,36.6,45,36.6S199,454.4,199,434.3z"/>
			<path class="st0" d="M217.4,526C204.5,504.4,180.9,490,154,490c-25,0-47.1,12.4-60.5,31.4c0.9-2,1.6-4,2.2-6.1
				c13.9-16.7,34.9-27.3,58.4-27.3c24.3,0,46,11.4,59.9,29.2c1,3,2.3,5.9,3.9,8.5L217.4,526z"/>
			<path class="st0" d="M83.9,478.1C90.7,485,95,494.5,95,505c0,5.5-1.2,10.7-3.3,15.4c-1.9,2.7-3.6,5.5-5.1,8.4
				C79.7,537.4,69,543,57,543c-21,0-38-17-38-38c0-21,17-38,38-38C67.5,467,77,471.3,83.9,478.1z"/>
			<path class="st0" d="M88.4,529.8c1.5-2.9,3.2-5.7,5.1-8.4C92.1,524.4,90.4,527.2,88.4,529.8z"/>
			<path class="st0" d="M91.7,520.4c-1.3,3-3,5.8-5.1,8.4C88.2,525.9,89.9,523.1,91.7,520.4z"/>
			<path class="st0" d="M86.7,528.8c2-2.5,3.8-5.3,5.1-8.4c1.2-1.8,2.5-3.4,3.9-5.1c-0.6,2.1-1.3,4.1-2.2,6.1
				c-1.9,2.7-3.6,5.5-5.1,8.4c-1.3,1.7-2.8,3.3-4.4,4.8C84.7,532.6,85.7,530.7,86.7,528.8z"/>
			<path class="st0" d="M80,564c0,40.9,33.1,74,74,74c-4.1,0-8,0.4-11.5,1.1C106,633.6,78,602.1,78,564c0-10.4,2.1-20.4,5.9-29.4
				c1.6-1.5,3.1-3.1,4.4-4.8C83,540,80,551.7,80,564z"/>
			<path class="st0" d="M17,505c0-22.1,17.9-40,40-40s40,17.9,40,40c0,3.6-0.5,7-1.4,10.3c-1.4,1.6-2.7,3.3-3.9,5.1
				c2.1-4.7,3.3-9.9,3.3-15.4c0-10.5-4.3-20-11.1-26.9C77,471.3,67.5,467,57,467c-21,0-38,17-38,38c0,21,17,38,38,38
				c12,0,22.7-5.6,29.7-14.2c-1,1.9-1.9,3.8-2.7,5.8C76.8,541,67.4,545,57,545C34.9,545,17,527.1,17,505z"/>
		</g>
		<g>
			<path class="st1" d="M154,640c-3.9,0-7.7-0.3-11.4-0.9C106,633.6,78,602.1,78,564c0-10.4,2.1-20.4,5.9-29.4
				c0.8-2,1.7-3.9,2.7-5.8c1.5-2.9,3.2-5.7,5.1-8.4c1.2-1.8,2.5-3.4,3.9-5.1c13.9-16.7,34.9-27.3,58.4-27.3
				c24.3,0,46,11.4,59.9,29.2c3.8,4.8,6.9,10.1,9.5,15.7c4.2,9.5,6.6,20,6.6,31.1c-0.1,38.1-28,69.6-64.6,75.1
				C161.7,639.7,157.9,640,154,640"/>
			<path class="st1" d="M217.4,526C204.5,504.4,180.9,490,154,490c-25,0-47.1,12.4-60.5,31.4c-1.9,2.7-3.6,5.5-5.1,8.4
				C83,540,80,551.7,80,564c0,40.9,33.1,74,74,74s74-33.1,74-74C228,550.1,224.1,537.1,217.4,526z"/>
			<ellipse class="st1" cx="154" cy="434.3" rx="47" ry="38.2"/>
			<ellipse class="st1" cx="154" cy="434.3" rx="45" ry="36.6"/>
			<path class="st1" d="M213.9,517.2c-1.2-3.9-1.9-8-1.9-12.2c0-22.1,17.9-40,40-40s40,17.9,40,40c0,22.1-17.9,40-40,40
				c-11.2,0-21.4-4.6-28.6-12.1c-2.1-2.2-4-4.6-5.6-7.2C216.2,523.1,214.9,520.2,213.9,517.2z"/>
			<path class="st1" d="M252,467c-21,0-38,17-38,38c0,21,17,38,38,38s38-17,38-38c0-10.5-4.3-20-11.1-26.9
				C272,471.3,262.5,467,252,467z"/>
			<path class="st1" d="M83.9,534.6C76.8,541,67.4,545,57,545c-22.1,0-40-17.9-40-40s17.9-40,40-40s40,17.9,40,40
				c0,3.6-0.5,7-1.4,10.3c-0.6,2.1-1.3,4.1-2.2,6.1c-1.4,3-3.1,5.8-5.1,8.4C87,531.5,85.5,533.1,83.9,534.6z"/>
			<path class="st1" d="M91.7,520.4c2.1-4.7,3.3-9.9,3.3-15.4c0-10.5-4.3-20-11.1-26.9C77,471.3,67.5,467,57,467c-21,0-38,17-38,38
				c0,21,17,38,38,38c12,0,22.7-5.6,29.7-14.2C88.7,526.2,90.4,523.4,91.7,520.4z"/>
			<path class="st1" d="M165.4,639.1c8.4,1.8,14.1,5.5,14.1,9.9c0,6.2-11.2,11-25.5,11s-25.5-4.8-25.5-11c0-4.4,5.6-8.1,14-9.9
				c3.4-0.7,7.3-1.1,11.5-1.1C158.1,638,162,638.4,165.4,639.1z"/>
			<path class="st1" d="M154,640C154,640,154,640,154,640c-14.1,0-23.5,4.7-23.5,9c0,4.4,9.4,9,23.5,9s23.5-4.6,23.5-9
				C177.5,644.7,168.1,640,154,640z"/>
		</g>
	</g>
	<g id="XMLID_5_">
		<g>
			<path class="st2" d="M176.2,417c5.6,0,10,8.4,10,19.1c0,10.7-4.4,19.1-10,19.1s-10-8.4-10-19.1C166.2,425.4,170.6,417,176.2,417z
				 M184.2,436.1c0-9.3-3.7-17.1-8-17.1s-8,7.8-8,17.1c0,9.2,3.7,17.1,8,17.1S184.2,445.3,184.2,436.1z"/>
			<ellipse class="st2" cx="176.2" cy="436.1" rx="8" ry="17.1"/>
			<path class="st2" d="M132,417c5.6,0,10,8.4,10,19.1c0,10.7-4.4,19.1-10,19.1s-10-8.4-10-19.1C122,425.4,126.4,417,132,417z
				 M140.1,436.1c0-9.3-3.7-17.1-8-17.1s-8,7.8-8,17.1c0,9.2,3.7,17.1,8,17.1S140.1,445.3,140.1,436.1z"/>
			<ellipse class="st2" cx="132" cy="436.1" rx="8" ry="17.1"/>
		</g>
		<g>
			<ellipse class="st3" cx="132" cy="436.1" rx="10" ry="19.1"/>
			<ellipse class="st3" cx="132" cy="436.1" rx="8" ry="17.1"/>
			<ellipse class="st3" cx="176.2" cy="436.1" rx="10" ry="19.1"/>
			<ellipse class="st3" cx="176.2" cy="436.1" rx="8" ry="17.1"/>
		</g>
	</g>
	<g id="XMLID_2_">
		<g>
			<path class="st0" d="M599.1,566c22.1,0,39.9,17.9,39.9,40c0,22.1-17.9,40-39.9,40c-22.1,0-39.9-17.9-39.9-40
				c0-2.6,0.2-5.1,0.7-7.5c2.2-4.3,4-8.9,5.4-13.7c0,0,0,0,0,0C572.3,573.5,584.8,566,599.1,566z M599.1,644c21,0,37.9-17,37.9-38
				c0-21-17-38-37.9-38c-21,0-37.9,17-37.9,38C561.1,627,578.1,644,599.1,644z"/>
			<path class="st0" d="M637,606c0,21-17,38-37.9,38s-37.9-17-37.9-38c0-21,17-38,37.9-38C620,568,637,585,637,606z"/>
			<path class="st0" d="M568.1,564c0,7.2-1,14.2-2.9,20.8c0,0,0,0,0,0c-1.3,2.1-2.4,4.2-3.3,6.5l-0.9-0.2c3.3-8.4,5.1-17.5,5.1-27.1
				c0-40.8-33.1-73.9-73.9-74c3.7,0,7.3-0.4,10.7-1.2C539.8,494,568.1,525.7,568.1,564z"/>
			<path class="st0" d="M561.9,591.3c0.9-2.3,2-4.5,3.3-6.5c-1.3,4.8-3.2,9.3-5.4,13.7C560.3,596,561,593.6,561.9,591.3z"/>
			<path class="st0" d="M561,591.1l0.9,0.2c-0.9,2.3-1.6,4.7-2.1,7.2c-10.9,21.4-31.6,36.9-56.2,40.6c-3.4-0.7-7.3-1.1-11.4-1.1
				C523.5,638,550.2,618.6,561,591.1z"/>
			<path class="st0" d="M566.1,564c0,9.6-1.8,18.7-5.1,27.1c-10.8,27.5-37.5,46.9-68.8,46.9c-40.8,0-73.9-33.1-73.9-74
				c0-1.3,0-2.5,0.1-3.8c2-39.1,34.3-70.2,73.8-70.2C533,490.1,566.1,523.2,566.1,564z"/>
			<path class="st0" d="M492.2,396c25.9,0,46.9,21,46.9,47c0,22.2-15.5,40.9-36.2,45.8c-3.5-0.5-7.1-0.8-10.7-0.8
				c24.8,0,44.9-20.2,44.9-45c0-12.4-5-23.7-13.2-31.8c-8.1-8.2-19.3-13.2-31.7-13.2c-24.8,0-44.9,20.1-44.9,45s20.1,45,44.9,45
				c-3.6,0-7.2,0.3-10.7,0.8c-20.7-4.9-36.2-23.5-36.2-45.8C445.3,417,466.3,396,492.2,396z"/>
			<path class="st0" d="M537.2,443c0,24.8-20.1,45-44.9,45c0,0,0,0,0,0c-24.8,0-44.9-20.1-44.9-45s20.1-45,44.9-45
				c12.4,0,23.6,5,31.7,13.2C532.1,419.3,537.2,430.6,537.2,443z"/>
			<path class="st0" d="M503.7,639.1c8.4,1.8,14,5.5,14,9.9c0,6.2-11.2,11-25.5,11s-25.5-4.8-25.5-11c0-4.4,5.6-8.1,14-9.9
				c3.7,0.6,7.5,0.9,11.4,0.9c-14,0-23.4,4.7-23.4,9c0,4.4,9.4,9,23.5,9c14,0,23.5-4.6,23.5-9c0-4.3-9.4-9-23.5-9
				C496.1,640,499.9,639.7,503.7,639.1z"/>
			<path class="st0" d="M492.2,640c14,0,23.5,4.7,23.5,9c0,4.4-9.4,9-23.5,9c-14,0-23.5-4.6-23.5-9C468.8,644.7,478.2,640,492.2,640
				C492.2,640,492.2,640,492.2,640z"/>
			<path class="st0" d="M492.3,488c3.6,0,7.2,0.3,10.7,0.8c-3.4,0.8-7,1.2-10.7,1.2c-3.7,0-7.3-0.4-10.7-1.2
				C485,488.3,488.6,488,492.3,488C492.3,488,492.3,488,492.3,488z"/>
			<path class="st0" d="M503.7,639.1c-3.7,0.6-7.5,0.9-11.4,0.9c0,0,0,0,0,0c-3.9,0-7.7-0.3-11.4-0.9c3.4-0.7,7.3-1.1,11.4-1.1
				C496.4,638,500.2,638.4,503.7,639.1z"/>
			<path class="st0" d="M481.5,488.8c3.5,0.8,7,1.2,10.7,1.2c-39.5,0-71.8,31.1-73.8,70.2l-0.6,0c0-0.4,0-0.8,0-1.2
				c0-0.1,0-0.2,0-0.2c0-2.2-0.2-4.4-0.6-6.6C422.4,519.3,448.5,493.4,481.5,488.8z"/>
			<path class="st0" d="M492.2,638c-4.1,0-8,0.4-11.4,1.1c-34.8-5.3-61.8-34.2-64.3-69.9c0.8-2.9,1.2-6,1.3-9.1l0.6,0
				c-0.1,1.3-0.1,2.5-0.1,3.8C418.4,604.9,451.4,638,492.2,638z"/>
			<path class="st0" d="M417.9,559c0,0.4,0,0.8,0,1.2c-0.1,3.1-0.5,6.2-1.3,9.1c-0.1-1.7-0.2-3.5-0.2-5.3c0-4,0.3-8,0.9-11.8
				c0.4,2.1,0.6,4.3,0.6,6.6C417.9,558.8,417.9,558.9,417.9,559z"/>
			<path class="st0" d="M417.3,552.2c-0.6,3.9-0.9,7.8-0.9,11.8c0,1.8,0.1,3.5,0.2,5.3c-4.5,17.1-19.9,29.7-38.4,29.7
				c-22.1,0.1-40-17.7-40.2-39.8c-0.1-22.1,17.6-40.1,39.7-40.2C397.5,518.9,414,533.2,417.3,552.2z M415.9,559.2c0-0.1,0-0.2,0-0.2
				c0-20.9-16.8-37.9-37.7-38c-21-0.1-38,16.8-38.2,37.8c-0.1,21,16.8,38.1,37.7,38.2C398.7,597.1,415.8,580.2,415.9,559.2z"/>
			<path class="st0" d="M415.9,559c0,0.1,0,0.2,0,0.2c-0.1,21-17.2,37.9-38.2,37.8c-20.9-0.1-37.8-17.2-37.7-38.2
				c0.1-21,17.2-37.9,38.2-37.8C399.1,521.1,415.9,538.1,415.9,559z"/>
		</g>
		<g>
			<path class="st1" d="M565.2,584.8c-1.3,4.8-3.2,9.3-5.4,13.7c-10.9,21.4-31.6,36.9-56.2,40.6c-3.7,0.6-7.5,0.9-11.4,0.9"/>
			<path class="st1" d="M492.3,488c3.6,0,7.2,0.3,10.7,0.8c36.8,5.2,65.2,36.9,65.2,75.2c0,7.2-1,14.2-2.9,20.8"/>
			<path class="st1" d="M492.2,640c-3.9,0-7.7-0.3-11.4-0.9c-34.8-5.3-61.8-34.2-64.3-69.9c-0.1-1.7-0.2-3.5-0.2-5.3
				c0-4,0.3-8,0.9-11.8c5.1-32.9,31.3-58.8,64.2-63.4c3.5-0.5,7.1-0.8,10.7-0.8"/>
			<path class="st1" d="M492.2,490c-39.5,0-71.8,31.1-73.8,70.2c-0.1,1.3-0.1,2.5-0.1,3.8c0,40.9,33.1,74,73.9,74
				c31.2,0,58-19.4,68.8-46.9c3.3-8.4,5.1-17.5,5.1-27.1C566.1,523.2,533,490.1,492.2,490z"/>
			<path class="st1" d="M492.2,490c-3.7,0-7.3-0.4-10.7-1.2c-20.7-4.9-36.2-23.5-36.2-45.8c0-26,21-47,46.9-47s46.9,21,46.9,47
				c0,22.2-15.5,40.9-36.2,45.8C499.5,489.6,495.9,490,492.2,490z"/>
			<path class="st1" d="M492.3,488c24.8,0,44.9-20.2,44.9-45c0-12.4-5-23.7-13.2-31.8c-8.1-8.2-19.3-13.2-31.7-13.2
				c-24.8,0-44.9,20.1-44.9,45S467.4,488,492.3,488C492.3,488,492.3,488,492.3,488z"/>
			<path class="st1" d="M565.2,584.8c7.1-11.3,19.6-18.8,33.8-18.8c22.1,0,39.9,17.9,39.9,40c0,22.1-17.9,40-39.9,40
				c-22.1,0-39.9-17.9-39.9-40c0-2.6,0.2-5.1,0.7-7.5c0.5-2.5,1.2-4.9,2.1-7.2C562.8,589,563.9,586.9,565.2,584.8
				C565.2,584.8,565.2,584.8,565.2,584.8z"/>
			<path class="st1" d="M599.1,568c-21,0-37.9,17-37.9,38c0,21,17,38,37.9,38s37.9-17,37.9-38C637,585,620,568,599.1,568z"/>
			<path class="st1" d="M416.6,569.3c-4.5,17.1-19.9,29.7-38.4,29.7c-22.1,0.1-40-17.7-40.2-39.8c-0.1-22.1,17.6-40.1,39.7-40.2
				c19.8-0.1,36.4,14.2,39.6,33.2c0.4,2.1,0.6,4.3,0.6,6.6c0,0.1,0,0.2,0,0.2c0,0.4,0,0.8,0,1.2
				C417.8,563.3,417.3,566.4,416.6,569.3z"/>
			<path class="st1" d="M378.2,521c-21-0.1-38,16.8-38.2,37.8c-0.1,21,16.8,38.1,37.7,38.2c21,0.1,38-16.8,38.2-37.8
				c0-0.1,0-0.2,0-0.2C415.9,538.1,399.1,521.1,378.2,521z"/>
			<path class="st1" d="M503.7,639.1c8.4,1.8,14,5.5,14,9.9c0,6.2-11.2,11-25.5,11s-25.5-4.8-25.5-11c0-4.4,5.6-8.1,14-9.9
				c3.4-0.7,7.3-1.1,11.4-1.1C496.4,638,500.2,638.4,503.7,639.1z"/>
			<path class="st1" d="M492.2,640C492.2,640,492.2,640,492.2,640c-14,0-23.5,4.7-23.5,9c0,4.4,9.4,9,23.5,9c14,0,23.5-4.6,23.5-9
				C515.7,644.7,506.3,640,492.2,640z"/>
		</g>
	</g>
	<g id="XMLID_1_">
		<g>
			<path class="st2" d="M515,417c5.6,0,10,8.4,10,19s-4.4,19-10,19s-10-8.4-10-19S509.4,417,515,417z M523,436c0-9.2-3.7-17-8-17
				c-4.3,0-8,7.8-8,17c0,9.2,3.7,17,8,17C519.3,453,523,445.2,523,436z"/>
			<ellipse class="st2" cx="515" cy="436" rx="8" ry="17"/>
			<path class="st2" d="M471,417c5.6,0,10,8.4,10,19s-4.4,19-10,19s-10-8.4-10-19S465.4,417,471,417z M479,436c0-9.2-3.7-17-8-17
				s-8,7.8-8,17c0,9.2,3.7,17,8,17S479,445.2,479,436z"/>
			<ellipse class="st2" cx="471" cy="436" rx="8" ry="17"/>
		</g>
		<g>
			<ellipse class="st3" cx="471" cy="436" rx="8" ry="17"/>
			<ellipse class="st3" cx="515" cy="436" rx="8" ry="17"/>
		</g>
	</g>
	<g id="XMLID_3_">
		<g>
			<path class="st0" d="M950,569c22.1,0,40,17.9,40,40c0,22.1-17.9,40-40,40c-22.1,0-40-17.9-40-40c0-2.6,0.2-5.1,0.7-7.5
				c2.2-4.3,4-8.9,5.4-13.7c0,0,0,0,0,0C923.2,576.5,935.7,569,950,569z M950,647c21,0,38-17,38-38c0-10.5-4.3-20-11.1-26.9
				S960.5,571,950,571c-21,0-38,17-38,38C912,630,929,647,950,647z"/>
			<path class="st0" d="M988,609c0,21-17,38-38,38s-38-17-38-38c0-21,17-38,38-38c10.5,0,20,4.3,26.9,11.1S988,598.5,988,609z"/>
			<path class="st0" d="M883,406c26,0,47,21,47,47c0,25.9-21,47-47,47c-1.5,0-3-0.1-4.5-0.2c-2.3-1.2-4.7-2.3-7.1-3.3
				c3.7,1,7.6,1.5,11.6,1.5c24.8,0,45-20.1,45-45c0-12.4-5-23.7-13.2-31.8c-8.1-8.2-19.4-13.2-31.8-13.2c-24.8,0-45,20.1-45,45
				c0,18.4,11.1,34.3,26.9,41.2c-2.5-0.8-5-1.4-7.6-1.9C844.5,484,836,469.5,836,453C836,427,857,406,883,406z"/>
			<path class="st0" d="M919,567c0,7.2-1,14.2-2.9,20.8c0,0,0,0,0,0c-1.3,2.1-2.4,4.2-3.3,6.5l-0.9-0.2c3.3-8.4,5.1-17.5,5.1-27.1
				c0-31.1-19.3-57.7-46.5-68.7c2.6,0.7,5.2,1.2,8,1.5C902.6,512.5,919,537.9,919,567z"/>
			<path class="st0" d="M928,453c0,24.9-20.2,45-45,45c-4,0-7.9-0.5-11.6-1.5c-2.1-0.9-4.3-1.6-6.5-2.3c-15.9-7-26.9-22.8-26.9-41.2
				c0-24.9,20.2-45,45-45c12.4,0,23.7,5,31.8,13.2C923,429.3,928,440.6,928,453z"/>
			<path class="st0" d="M912.8,594.3c0.9-2.3,2-4.5,3.3-6.5c-1.4,4.8-3.2,9.3-5.4,13.7C911.2,599,911.9,596.6,912.8,594.3z"/>
			<path class="st0" d="M911.9,594.1l0.9,0.2c-0.9,2.3-1.6,4.7-2.1,7.2C898.1,626.1,872.5,643,843,643c-2.8,0-5.5-0.1-8.2-0.4
				c-1.3-1.1-3.1-2-5.1-2.8c4.3,0.8,8.8,1.2,13.4,1.2C874.3,641,901,621.6,911.9,594.1z"/>
			<path class="st0" d="M917,567c0,9.6-1.8,18.7-5.1,27.1C901,621.6,874.3,641,843,641c-4.6,0-9-0.4-13.4-1.2c-2.5-1-5.6-1.8-9-2.2
				c-29.9-9.5-51.7-37.5-51.7-70.6c0-1,0-2,0.1-2.9c1.5-39.5,34-71.1,73.9-71.1c7.4,0,14.6,1.1,21.4,3.2c2,0.8,4,1.6,6.2,2.2
				C897.7,509.3,917,535.9,917,567z"/>
			<path class="st0" d="M871.4,496.5c2.4,1,4.8,2.1,7.1,3.3c-2.7-0.3-5.4-0.8-8-1.5c-2-0.8-4.1-1.5-6.2-2.2
				c-2.5-1.1-4.8-2.4-7.1-3.8c2.6,0.5,5.2,1.1,7.6,1.9C867,495.1,869.2,495.9,871.4,496.5z"/>
			<path class="st0" d="M864.9,494.2c2.2,0.7,4.3,1.4,6.5,2.3C869.2,495.9,867,495.1,864.9,494.2z"/>
			<path class="st0" d="M864.4,496.2c2.1,0.6,4.1,1.3,6.2,2.2C868.4,497.8,866.4,497,864.4,496.2z"/>
			<path class="st0" d="M857.3,492.4c2.2,1.5,4.6,2.8,7.1,3.8c-6.8-2.1-13.9-3.2-21.4-3.2c-39.9,0-72.4,31.6-73.9,71.1H769
				c0-0.7,0-1.4,0-2.1c0-2.8-0.3-5.6-0.8-8.2c6.3-35.7,37.4-62.8,74.8-62.8C847.9,491,852.7,491.5,857.3,492.4z"/>
			<path class="st0" d="M834.8,642.6c2.1,1.6,3.2,3.4,3.2,5.4c0,6.2-11.2,11-25.5,11s-25.5-4.8-25.5-11c0-6.2,11.2-11,25.5-11
				c0.3,0,0.6,0,0.9,0c2.2,0.9,4.5,1.8,6.8,2.5c-2.3-0.3-4.9-0.5-7.6-0.5c-14.1,0-23.5,4.7-23.5,9c0,4.4,9.4,9,23.5,9
				s23.5-4.6,23.5-9c0-2.2-2.5-4.5-6.8-6.3C831,642.1,832.9,642.4,834.8,642.6z"/>
			<path class="st0" d="M829.6,639.8c2,0.8,3.8,1.7,5.1,2.8c-1.9-0.2-3.7-0.5-5.5-0.8c-2.5-1-5.5-1.8-9.1-2.2
				c-2.3-0.7-4.6-1.6-6.8-2.5c2.6,0,5,0.2,7.3,0.6C823.6,638.5,826.6,639.2,829.6,639.8z"/>
			<path class="st0" d="M829.2,641.7c4.3,1.7,6.8,4,6.8,6.3c0,4.4-9.4,9-23.5,9s-23.5-4.6-23.5-9c0-4.3,9.4-9,23.5-9
				c2.7,0,5.3,0.2,7.6,0.5C823.1,640.4,826.1,641.2,829.2,641.7z"/>
			<path class="st0" d="M820.7,637.6c3.4,0.5,6.4,1.2,9,2.2C826.6,639.2,823.6,638.5,820.7,637.6z"/>
			<path class="st0" d="M820.1,639.5c3.5,0.5,6.6,1.3,9.1,2.2C826.1,641.2,823.1,640.4,820.1,639.5z"/>
			<path class="st0" d="M820.7,637.6c-2.3-0.3-4.7-0.5-7.3-0.6c-25.3-10.7-43.6-34.8-46.1-63.4c0.9-3,1.5-6.2,1.7-9.5h0.1
				c0,1-0.1,2-0.1,2.9C769,600.1,790.7,628.1,820.7,637.6z"/>
			<path class="st0" d="M769,562c0,0.7,0,1.4,0,2.1c-0.2,3.3-0.7,6.5-1.7,9.5c-0.2-2.2-0.3-4.4-0.3-6.6c0-4.5,0.4-8.9,1.2-13.2
				C768.7,556.4,769,559.2,769,562z"/>
			<path class="st0" d="M768.2,553.8c-0.8,4.3-1.2,8.7-1.2,13.2c0,2.2,0.1,4.4,0.3,6.6c-5,16.4-20.2,28.4-38.3,28.4
				c-22.1,0-40-17.9-40-40c0-22.1,17.9-40,40-40C748.3,522,764.4,535.6,768.2,553.8z M729,600c21,0,38-17,38-38
				c0-10.5-4.3-20-11.1-26.9S739.5,524,729,524c-21,0-38,17-38,38C691,583,708,600,729,600z"/>
			<path class="st0" d="M767,562c0,21-17,38-38,38s-38-17-38-38c0-21,17-38,38-38c10.5,0,20,4.3,26.9,11.1S767,551.5,767,562z"/>
		</g>
		<g>
			<path class="st1" d="M916.1,587.8c-1.4,4.8-3.2,9.3-5.4,13.7C898.1,626.1,872.5,643,843,643c-2.8,0-5.5-0.1-8.2-0.4
				c-1.9-0.2-3.7-0.5-5.5-0.8c-3.1-0.6-6.1-1.3-9.1-2.2c-2.3-0.7-4.6-1.6-6.8-2.5c-25.3-10.7-43.6-34.8-46.1-63.4
				c-0.2-2.2-0.3-4.4-0.3-6.6c0-4.5,0.4-8.9,1.2-13.2c6.3-35.7,37.4-62.8,74.8-62.8c4.9,0,9.7,0.5,14.3,1.4c2.6,0.5,5.2,1.1,7.6,1.9
				c2.2,0.7,4.3,1.4,6.5,2.3c2.4,1,4.8,2.1,7.1,3.3c24.1,12.7,40.5,38.1,40.5,67.2C919,574.2,918,581.2,916.1,587.8"/>
			<path class="st1" d="M864.4,496.2c-6.8-2.1-13.9-3.2-21.4-3.2c-39.9,0-72.4,31.6-73.9,71.1c0,1-0.1,2-0.1,2.9
				c0,33.1,21.7,61.1,51.7,70.6c2.9,0.9,5.9,1.7,9,2.2c4.3,0.8,8.8,1.2,13.4,1.2c31.3,0,58-19.4,68.9-46.9
				c3.3-8.4,5.1-17.5,5.1-27.1c0-31.1-19.3-57.7-46.5-68.7C868.5,497.5,866.5,496.8,864.4,496.2z"/>
			<path class="st1" d="M857.3,492.4C844.5,484,836,469.5,836,453c0-26,21-47,47-47s47,21,47,47c0,25.9-21,47-47,47
				c-1.5,0-3-0.1-4.5-0.2c-2.7-0.3-5.4-0.8-8-1.5c-2.1-0.6-4.2-1.3-6.2-2.2C861.9,495.1,859.5,493.8,857.3,492.4z"/>
			<path class="st1" d="M871.4,496.5c3.7,1,7.6,1.5,11.6,1.5c24.8,0,45-20.1,45-45c0-12.4-5-23.7-13.2-31.8
				c-8.1-8.2-19.4-13.2-31.8-13.2c-24.8,0-45,20.1-45,45c0,18.4,11.1,34.3,26.9,41.2C867,495.1,869.2,495.9,871.4,496.5z"/>
			<path class="st1" d="M916.1,587.8c7.1-11.3,19.6-18.8,33.9-18.8c22.1,0,40,17.9,40,40c0,22.1-17.9,40-40,40
				c-22.1,0-40-17.9-40-40c0-2.6,0.2-5.1,0.7-7.5c0.5-2.5,1.2-4.9,2.1-7.2C913.7,592,914.8,589.9,916.1,587.8
				C916.1,587.8,916.1,587.8,916.1,587.8z"/>
			<path class="st1" d="M950,571c-21,0-38,17-38,38c0,21,17,38,38,38s38-17,38-38c0-10.5-4.3-20-11.1-26.9S960.5,571,950,571z"/>
			<path class="st1" d="M767.3,573.6c-5,16.4-20.2,28.4-38.3,28.4c-22.1,0-40-17.9-40-40c0-22.1,17.9-40,40-40
				c19.3,0,35.4,13.6,39.2,31.8c0.6,2.7,0.8,5.4,0.8,8.2c0,0.7,0,1.4,0,2.1C768.8,567.4,768.2,570.5,767.3,573.6z"/>
			<path class="st1" d="M729,524c-21,0-38,17-38,38c0,21,17,38,38,38s38-17,38-38c0-10.5-4.3-20-11.1-26.9S739.5,524,729,524z"/>
			<path class="st1" d="M834.8,642.6c2.1,1.6,3.2,3.4,3.2,5.4c0,6.2-11.2,11-25.5,11s-25.5-4.8-25.5-11c0-6.2,11.2-11,25.5-11
				c0.3,0,0.6,0,0.9,0c2.6,0,5,0.2,7.3,0.6c3.4,0.5,6.4,1.2,9,2.2C831.7,640.6,833.4,641.5,834.8,642.6z"/>
			<path class="st1" d="M820.1,639.5c-2.3-0.3-4.9-0.5-7.6-0.5c-14.1,0-23.5,4.7-23.5,9c0,4.4,9.4,9,23.5,9s23.5-4.6,23.5-9
				c0-2.2-2.5-4.5-6.8-6.3C826.7,640.8,823.7,640,820.1,639.5z"/>
		</g>
	</g>
	<g id="XMLID_4_">
		<g>
			<path class="st2" d="M905,445c5.6,0,10,8.4,10,19s-4.4,19-10,19s-10-8.4-10-19S899.4,445,905,445z M913,464c0-9.2-3.7-17-8-17
				s-8,7.8-8,17c0,9.2,3.7,17,8,17S913,473.2,913,464z"/>
			<ellipse class="st2" cx="905" cy="464" rx="8" ry="17"/>
			<path class="st2" d="M861,445c5.6,0,10,8.4,10,19s-4.4,19-10,19s-10-8.4-10-19S855.4,445,861,445z M869,464c0-9.2-3.7-17-8-17
				s-8,7.8-8,17c0,9.2,3.7,17,8,17S869,473.2,869,464z"/>
			<ellipse class="st2" cx="861" cy="464" rx="8" ry="17"/>
		</g>
		<g>
			<ellipse class="st3" cx="861" cy="464" rx="10" ry="19"/>
			<ellipse class="st3" cx="861" cy="464" rx="8" ry="17"/>
			<ellipse class="st3" cx="905" cy="464" rx="10" ry="19"/>
			<ellipse class="st3" cx="905" cy="464" rx="8" ry="17"/>
		</g>
	</g>
	<path class="st4" d="M378.5,442.1c-31.2-32.4-99.9-19.7-100.5-19.6l-0.4-1.9c0.7-0.1,70.4-13,102.4,20.2L378.5,442.1z"/>
	<path class="st4" d="M387,452.1c-4.9-3.3-11.7-6.8-17.1-8l9.1-3.2l5.2-8.9C383.9,438.1,385.3,446.1,387,452.1z"/>
	<path class="st4" d="M693.7,496.3c-31.2-32.4-99.9-19.7-100.5-19.6l-0.4-1.9c0.7-0.1,70.4-13,102.4,20.2L693.7,496.3z"/>
	<path class="st4" d="M700,505c-4.9-3.2-11.6-6.5-17-7.6l9.1-3l5.1-8.4C696.9,491.7,698.3,499.3,700,505z"/>
</g>
<g id="Layer_2">
	<path class="st5" d="M892.6,350H138.7c-10.7,0-19.4-5.6-19.4-12.6v-301c0-5.1,6.4-9.2,14.2-9.2h764c8,0,14.5,4.2,14.5,9.4v300.8
		C912,344.4,903.3,350,892.6,350z"/>
	<path class="st0" d="M868.2,334.1H165.6c-10.3,0-18.7-5.1-18.7-11.3V60.7c0-4.6,6.2-8.4,13.8-8.4h712.1c7.8,0,14.1,3.8,14.1,8.5
		v262C886.9,329.1,878.5,334.1,868.2,334.1z"/>
	<path class="st6" d="M911.7,38H119v-6.4c0-7,8.7-12.6,19.5-12.6h753.8c10.8,0,19.5,5.6,19.5,12.6V38z"/>
	<circle class="st0" cx="150.2" cy="28.5" r="3.3"/>
	<circle class="st0" cx="162.6" cy="28.5" r="3.3"/>
	<circle class="st0" cx="174.9" cy="28.5" r="3.3"/>
	<path class="st7" d="M500.2,109.6H362.8c-4.3,0-7.7-2.2-7.7-5c0-2.8,3.5-5,7.7-5h137.4c4.3,0,7.7,2.2,7.7,5
		C508,107.4,504.5,109.6,500.2,109.6C500.2,109.6,500.2,109.6,500.2,109.6z"/>
	<path class="st7" d="M671,109.6H533.6c-4.3,0-7.7-2.2-7.7-5c0-2.8,3.5-5,7.7-5H671c4.3,0,7.7,2.2,7.7,5
		C678.7,107.4,675.3,109.6,671,109.6C671,109.6,671,109.6,671,109.6z"/>
	<path class="st7" d="M671,128.6H431.9c-4.3,0-7.7-2.2-7.7-5c0-2.8,3.5-5,7.7-5l0,0H671c4.3,0,7.7,2.2,7.7,5
		C678.7,126.3,675.3,128.6,671,128.6z"/>
	<path class="st7" d="M500.2,90.4H362.8c-4.3,0-7.7-2.2-7.7-5c0-2.8,3.5-5,7.7-5h137.4c4.3,0,7.7,2.2,7.7,5
		C508,88.1,504.5,90.4,500.2,90.4C500.3,90.4,500.2,90.4,500.2,90.4z"/>
	<path class="st7" d="M575.9,90.7h-39c-4.3,0-7.7-2.2-7.7-5c0-2.8,3.5-5,7.7-5h39c4.3,0,7.7,2.2,7.7,5
		C583.6,88.4,580.1,90.7,575.9,90.7C575.9,90.7,575.9,90.7,575.9,90.7z"/>
	<path class="st7" d="M401.8,128.6h-39c-4.3,0-7.7-2.2-7.7-5c0-2.8,3.5-5,7.7-5h39c4.3,0,7.7,2.2,7.7,5
		C409.6,126.3,406.1,128.6,401.8,128.6C401.9,128.6,401.9,128.6,401.8,128.6z"/>
	<path class="st7" d="M500.2,287.1H362.8c-4.3,0-7.7-2.2-7.7-5s3.5-5,7.7-5h137.4c4.3,0,7.7,2.2,7.7,5S504.5,287.1,500.2,287.1
		L500.2,287.1z"/>
	<path class="st7" d="M671,287.1H533.6c-4.3,0-7.7-2.2-7.7-5s3.5-5,7.7-5l0,0H671c4.3,0,7.7,2.2,7.7,5S675.3,287.1,671,287.1z"/>
	<path class="st7" d="M671,306H431.9c-4.3,0-7.7-2.2-7.7-5c0-2.8,3.5-5,7.7-5l0,0H671c4.3,0,7.7,2.2,7.7,5
		C678.7,303.8,675.3,306,671,306C671,306,671,306,671,306z"/>
	<path class="st7" d="M500.2,267.9H362.8c-4.3,0-7.7-2.2-7.7-5s3.5-5,7.7-5l0,0h137.4c4.3,0,7.7,2.2,7.7,5S504.5,267.9,500.2,267.9z
		"/>
	<path class="st7" d="M575.9,268.1h-39c-4.3,0-7.7-2.2-7.7-5c0-2.8,3.5-5,7.7-5h39c4.3,0,7.7,2.2,7.7,5
		C583.6,265.9,580.1,268.1,575.9,268.1z"/>
	<path class="st7" d="M401.8,306h-39c-4.3,0-7.7-2.2-7.7-5c0-2.8,3.5-5,7.7-5l0,0h39c4.3,0,7.7,2.2,7.7,5
		C409.6,303.8,406.1,306,401.8,306C401.9,306,401.9,306,401.8,306z"/>
	<path class="st4" d="M487,233.4c-1.9,0-3.7-0.7-5-2.1l-33.4-33c-2.7-2.7-2.8-7.1-0.1-9.9c0,0,0,0,0.1-0.1l33.3-32.9
		c2.9-2.8,7.5-2.8,10.4,0l0,0c2.9,2.9,2.9,7.5,0,10.4l-24.7,24.8c-1.6,1.6-1.6,4.2,0,5.8l24.6,24.6c2.8,2.8,2.8,7.3,0,10.1
		C490.8,232.6,488.9,233.4,487,233.4L487,233.4z"/>
	<path class="st4" d="M540.3,233.4c-4,0-7.2-3.2-7.2-7.2c0-1.9,0.8-3.7,2.1-5.1l24.6-24.6c1.6-1.6,1.6-4.2,0-5.8l-24.7-24.8
		c-2.9-2.9-2.9-7.5,0-10.4c0,0,0,0,0,0l0,0c2.9-2.9,7.5-2.9,10.4,0l33.3,32.9c2.7,2.7,2.8,7.1,0.1,9.9c0,0,0,0-0.1,0.1l-33.4,33
		C544,232.7,542.2,233.4,540.3,233.4z"/>
</g>
</svg>
